<?xml version="1.0" encoding="iso-8859-1"?>
<!-- Generator: Adobe Illustrator 19.0.0, SVG Export Plug-In . SVG Version: 6.00 Build 0)  -->
<svg version="1.1" id="Layer_1" xmlns="http://www.w3.org/2000/svg" xmlns:xlink="http://www.w3.org/1999/xlink" x="0px" y="0px"
	 viewBox="0 0 287.724 287.724" style="enable-background:new 0 0 287.724 287.724;" xml:space="preserve">
<g>
	<g>
		<g>
			<path style="fill:#26A6D1;" d="M115.617,134.275c0,0,27.311-1.821,27.311-33.684s-21.849-47.339-50.07-47.339H40.967h-1.821H0
				v178.433h39.146h1.821h51.891c0,0,56.443,1.821,56.443-52.802C149.301,177.973,152.032,134.275,115.617,134.275z M40.967,84.205
				h45.519h6.373c0,0,12.745,0,12.745,18.207s-7.283,21.849-16.387,21.849h-48.25C40.967,124.261,40.967,84.205,40.967,84.205z
				 M90.127,198.911h-49.16v-47.339h51.891c0,0,19.118,0,19.118,24.58C111.976,196.18,97.41,198.911,90.127,198.911z"/>
			<g>
				<path style="fill:#26A6D1;" d="M224.862,97.86c-68.278,0-68.278,68.278-68.278,68.278s-4.552,68.278,68.278,68.278
					c0,0,60.995,3.641,60.995-47.339h-31.863c0,0,0.91,19.118-28.222,19.118c0,0-31.863,1.821-31.863-30.953h92.858
					C287.677,175.242,297.692,97.86,224.862,97.86z M253.083,151.572H194.82c0,0,3.641-27.311,31.863-27.311
					C253.083,124.261,253.083,151.572,253.083,151.572z"/>
				<rect x="186.626" y="63.266" style="fill:#26A6D1;" width="73.74" height="21.849"/>
			</g>
		</g>
	</g>
</g>
<g>
</g>
<g>
</g>
<g>
</g>
<g>
</g>
<g>
</g>
<g>
</g>
<g>
</g>
<g>
</g>
<g>
</g>
<g>
</g>
<g>
</g>
<g>
</g>
<g>
</g>
<g>
</g>
<g>
</g>
</svg>
