<?xml version="1.0" encoding="iso-8859-1"?>
<!-- Generator: Adobe Illustrator 19.0.0, SVG Export Plug-In . SVG Version: 6.00 Build 0)  -->
<svg version="1.1" id="Layer_1" xmlns="http://www.w3.org/2000/svg" xmlns:xlink="http://www.w3.org/1999/xlink" x="0px" y="0px"
	 viewBox="0 0 291.319 291.319" style="enable-background:new 0 0 291.319 291.319;" xml:space="preserve">
<g>
	<path style="fill:#F4B459;" d="M145.659,0c80.44,0,145.66,65.219,145.66,145.66S226.1,291.319,145.66,291.319S0,226.1,0,145.66
		S65.21,0,145.659,0z"/>
	<path style="fill:#FFFFFF;" d="M218.089,133.324l-1.238-2.531l-2.048-1.602c-2.686-2.094-16.268,0.146-19.928-3.177
		c-2.595-2.376-3.004-6.664-3.787-12.454c-1.457-11.252-2.385-11.835-4.142-15.631c-6.4-13.537-23.752-23.706-35.677-25.117h-32.3
		c-25.408,0-46.174,20.729-46.174,46.047v53.694c0,25.263,20.766,45.956,46.174,45.956h53.066c25.418,0,46.056-20.684,46.192-45.956
		l0.282-37.198C218.507,135.354,218.089,133.324,218.089,133.324z M118.576,109.299h26.874c5.116,0,9.286,4.088,9.286,9.067
		c0,4.962-4.16,9.086-9.286,9.086h-26.874c-5.125,0-9.286-4.124-9.286-9.086C109.29,113.387,113.451,109.299,118.576,109.299z
		 M172.907,182.065H118.54c-5.107,0-9.249-4.169-9.249-9.122c0-5.025,4.142-9.113,9.249-9.113h54.367
		c5.08,0,9.195,4.088,9.195,9.113C182.102,177.896,177.987,182.065,172.907,182.065z"/>
</g>
<g>
</g>
<g>
</g>
<g>
</g>
<g>
</g>
<g>
</g>
<g>
</g>
<g>
</g>
<g>
</g>
<g>
</g>
<g>
</g>
<g>
</g>
<g>
</g>
<g>
</g>
<g>
</g>
<g>
</g>
</svg>
