<?xml version="1.0" encoding="iso-8859-1"?>
<!-- Generator: Adobe Illustrator 19.0.0, SVG Export Plug-In . SVG Version: 6.00 Build 0)  -->
<svg version="1.1" id="Layer_1" xmlns="http://www.w3.org/2000/svg" xmlns:xlink="http://www.w3.org/1999/xlink" x="0px" y="0px"
	 viewBox="0 0 291.264 291.264" style="enable-background:new 0 0 291.264 291.264;" xml:space="preserve">
<g>
	<path style="fill:#4E6252;" d="M105.538,112.386c74.204-17.06,121.007,20.174,121.007,20.174l-45.391,12.49l-13.091-24.762
		c-12.29-2.294-26.292-3.022-41.194-0.464l30.898,63.999l133.497-39.201c0,0-48.395-70.69-192.817-52.474l-2.44,0.501l-14.02-29.023
		l-41.568,4.816l16.951,35.322C-30.262,140.662,8.574,227.639,8.574,227.639l133.706-39.246
		C142.281,188.393,105.538,112.386,105.538,112.386z M40.61,185.998c0,0-4.606-30.689,32.874-55.542l17.461,40.748
		C90.945,171.205,40.61,185.998,40.61,185.998z"/>
</g>
<g>
</g>
<g>
</g>
<g>
</g>
<g>
</g>
<g>
</g>
<g>
</g>
<g>
</g>
<g>
</g>
<g>
</g>
<g>
</g>
<g>
</g>
<g>
</g>
<g>
</g>
<g>
</g>
<g>
</g>
</svg>
