<?xml version="1.0" encoding="iso-8859-1"?>
<!-- Generator: Adobe Illustrator 19.0.0, SVG Export Plug-In . SVG Version: 6.00 Build 0)  -->
<svg version="1.1" id="Layer_1" xmlns="http://www.w3.org/2000/svg" xmlns:xlink="http://www.w3.org/1999/xlink" x="0px" y="0px"
	 viewBox="0 0 291.136 291.136" style="enable-background:new 0 0 291.136 291.136;" xml:space="preserve">
<g>
	<path style="fill:#EFC75E;" d="M206.199,180.832l0.81,1.384h1.62l77.709-0.337l4.798-0.036l-2.412-4.142L196.768,19.414
		l-0.801-1.384h-1.62l-77.728,0.319l-4.798,0.018l2.422,4.142C114.243,22.509,206.199,180.832,206.199,180.832z"/>
	<path style="fill:#3DB39E;" d="M138.413,100.619l-0.819-1.393L97.583,30.793l-2.422-4.133l-2.394,4.142L0.819,189.681L0,191.055
		l0.819,1.384l40.011,68.46l2.422,4.124l2.403-4.142l91.966-158.878C137.621,102.003,138.413,100.619,138.413,100.619z"/>
	<path style="fill:#26A6D1;" d="M103.509,199.922h-1.602l-0.801,1.366l-39.437,67.659l-2.385,4.16h189.212l0.801-1.402
		l39.446-67.659l2.385-4.124H103.509z"/>
</g>
<g>
</g>
<g>
</g>
<g>
</g>
<g>
</g>
<g>
</g>
<g>
</g>
<g>
</g>
<g>
</g>
<g>
</g>
<g>
</g>
<g>
</g>
<g>
</g>
<g>
</g>
<g>
</g>
<g>
</g>
</svg>
