<?xml version="1.0" encoding="iso-8859-1"?>
<!-- Generator: Adobe Illustrator 19.0.0, SVG Export Plug-In . SVG Version: 6.00 Build 0)  -->
<svg version="1.1" id="Layer_1" xmlns="http://www.w3.org/2000/svg" xmlns:xlink="http://www.w3.org/1999/xlink" x="0px" y="0px"
	 viewBox="0 0 291.319 291.319" style="enable-background:new 0 0 291.319 291.319;" xml:space="preserve">
<g>
	<path style="fill:#5B9A68;" d="M145.659,0c80.45,0,145.66,65.219,145.66,145.66c0,80.45-65.21,145.659-145.66,145.659
		S0,226.109,0,145.66C0,65.219,65.21,0,145.659,0z"/>
	<path style="fill:#FFFFFF;" d="M209.112,213.555L148.828,65.82c-0.528-1.302-1.73-2.13-3.059-2.13c-1.329,0-2.531,0.838-3.059,2.13
		L82.207,213.546c-0.455,1.102-0.346,2.376,0.264,3.377c0.619,0.992,1.675,1.602,2.804,1.602h51.664v-25.399l-14.375-10.615
		l2.376-9.614l11.999,8.858V154.9h17.079v12.545l12.509-6.709l1.875,9.659l-14.384,7.711v12.181l22.96-12.317l1.875,8.512
		l-24.844,13.328v18.735h52.037c1.129,0,2.167-0.601,2.795-1.602C209.458,215.922,209.568,214.647,209.112,213.555z"/>
</g>
<g>
</g>
<g>
</g>
<g>
</g>
<g>
</g>
<g>
</g>
<g>
</g>
<g>
</g>
<g>
</g>
<g>
</g>
<g>
</g>
<g>
</g>
<g>
</g>
<g>
</g>
<g>
</g>
<g>
</g>
</svg>
