<?xml version="1.0" encoding="iso-8859-1"?>
<!-- Generator: Adobe Illustrator 19.0.0, SVG Export Plug-In . SVG Version: 6.00 Build 0)  -->
<svg version="1.1" id="Layer_1" xmlns="http://www.w3.org/2000/svg" xmlns:xlink="http://www.w3.org/1999/xlink" x="0px" y="0px"
	 viewBox="0 0 291.319 291.319" style="enable-background:new 0 0 291.319 291.319;" xml:space="preserve">
<g>
	<path style="fill:#E41F11;" d="M145.659,0c80.45,0,145.66,65.219,145.66,145.66c0,80.45-65.21,145.659-145.66,145.659
		S0,226.109,0,145.66C0,65.219,65.21,0,145.659,0z"/>
	<path style="fill:#FFFFFF;" d="M117.966,117.766h28.285v45.81c0,0,46.265,13.401,52.183-27.976
		c0.947-45.901-52.274-45.664-52.274-45.664s-33.356-2.148-49.907,24.862c-12.536,21.521,3.55,40.885,3.55,40.885l-21.521,19.364
		c0,0-32.4-40.402-0.71-84.164c41.158-47.103,110.81-18.79,110.81-18.79s53.812,22.149,35.368,80.968
		c-25.554,53.557-77.254,33.72-77.254,33.72v26.774c0,0,0.391,14.821-17.124,21.275c-17.497,6.455-29.323-6.118-29.323-6.118
		v-28.331c8.658,8.649,13.674,14.648,17.925,2.649v-85.265C117.975,117.766,117.966,117.766,117.966,117.766z"/>
</g>
<g>
</g>
<g>
</g>
<g>
</g>
<g>
</g>
<g>
</g>
<g>
</g>
<g>
</g>
<g>
</g>
<g>
</g>
<g>
</g>
<g>
</g>
<g>
</g>
<g>
</g>
<g>
</g>
<g>
</g>
</svg>
