<?xml version="1.0" encoding="iso-8859-1"?>
<!-- Generator: Adobe Illustrator 19.0.0, SVG Export Plug-In . SVG Version: 6.00 Build 0)  -->
<svg version="1.1" id="Layer_1" xmlns="http://www.w3.org/2000/svg" xmlns:xlink="http://www.w3.org/1999/xlink" x="0px" y="0px"
	 viewBox="0 0 291.31 291.31" style="enable-background:new 0 0 291.31 291.31;" xml:space="preserve">
<g>
	<path style="fill:#2394BC;" d="M254.877,49.515v134.28c0,24.179-18.726,43.825-42.778,43.825h-5.717
		c-24.052,0-42.769-19.646-42.769-43.825V127.47c0-8.476-6.518-18.317-14.967-18.317H88.188c-8.448,0-15.677,9.322-15.677,17.161
		c0,8.111,7.347,17.051,16.013,17.488l7.283,0.473c23.87,1.256,42.696,20.511,41.95,42.924
		c-0.746,22.286-20.702,40.421-44.508,40.421H25.254c26.228,38.445,70.354,63.69,120.397,63.69
		c80.45,0,145.659-65.21,145.659-145.66C291.31,108.762,277.481,75.188,254.877,49.515z"/>
	<path style="fill:#3DB39E;" d="M109.454,186.262c0.228-6.919-6.7-13.109-15.139-13.546l-7.283-0.482
		c-23.615-1.229-41.986-22.778-41.986-45.91c0-23.542,18.726-44.408,42.787-44.408h57.326c24.07,0,45.91,21.385,45.91,45.564v56.325
		c0,8.485,6.873,15.367,15.312,15.367h5.717c8.448,0,15.312-6.882,15.312-15.367V25.117C204.096,9.277,175.966,0,145.66,0
		C65.21,0,0,65.219,0,145.659c0,19.227,3.814,37.544,10.588,54.358h82.671C101.798,200.018,109.226,193.263,109.454,186.262z"/>
</g>
<g>
</g>
<g>
</g>
<g>
</g>
<g>
</g>
<g>
</g>
<g>
</g>
<g>
</g>
<g>
</g>
<g>
</g>
<g>
</g>
<g>
</g>
<g>
</g>
<g>
</g>
<g>
</g>
<g>
</g>
</svg>
