<?xml version="1.0" encoding="iso-8859-1"?>
<!-- Generator: Adobe Illustrator 19.0.0, SVG Export Plug-In . SVG Version: 6.00 Build 0)  -->
<svg version="1.1" id="Layer_1" xmlns="http://www.w3.org/2000/svg" xmlns:xlink="http://www.w3.org/1999/xlink" x="0px" y="0px"
	 viewBox="0 0 291.319 291.319" style="enable-background:new 0 0 291.319 291.319;" xml:space="preserve">
<g>
	<path style="fill:#86C9EF;" d="M145.659,0c80.45,0,145.66,65.219,145.66,145.66c0,80.45-65.21,145.659-145.66,145.659
		S0,226.109,0,145.66C0,65.219,65.21,0,145.659,0z"/>
	<path style="fill:#FFFFFF;" d="M63.726,118.348c13.619-10.87,32.983-34.74,48.086-34.74c15.085,0,18.79,17.816,20.848,33.975
		c2.085,16.159,8.011,51.509,15.986,51.509c7.993,0,26.191-31.271,25.154-43.352c-1.02-12.081-14.202-10.269-21.448-6.8
		c6.664-24.161,22.049-37.007,41.722-37.007c19.682,0,24.425,13.901,24.425,30.971c0,25.982-52.665,105.585-84.483,105.585
		c-19.682,0-24.562-29.004-28.549-43.361c-3.997-14.338-11.844-51.964-21.02-54.377c-3.56-0.592-13.61,7.392-13.61,7.392
		L63.726,118.348z"/>
</g>
<g>
</g>
<g>
</g>
<g>
</g>
<g>
</g>
<g>
</g>
<g>
</g>
<g>
</g>
<g>
</g>
<g>
</g>
<g>
</g>
<g>
</g>
<g>
</g>
<g>
</g>
<g>
</g>
<g>
</g>
</svg>
